<?xml version="1.0" encoding="utf-8"?>
<!-- Generator: Adobe Illustrator 22.1.0, SVG Export Plug-In . SVG Version: 6.00 Build 0)  -->
<svg version="1.1" id="レイヤー_1" xmlns="http://www.w3.org/2000/svg" xmlns:xlink="http://www.w3.org/1999/xlink" x="0px"
	 y="0px" viewBox="0 0 279 59.6" style="enable-background:new 0 0 279 59.6;" xml:space="preserve">
<style type="text/css">
	.st0{display:none;}
	.st1{display:inline;}
	.st2{fill:#005C8E;}
	.st3{fill:#30A0D2;}
	.st4{fill:#E60012;}
	.st5{fill:#B6001F;}
</style>
<g id="レイヤー_1_1_" class="st0">
	<g class="st1">
		<g>
			<g>
				<path class="st2" d="M362.4,147.9c-1.7,0-3.2-0.6-4.5-1.8c-1.2-1.2-1.8-2.7-1.8-4.5V-2.1c0-1.7,0.6-3.2,1.8-4.5
					c1.2-1.2,2.7-1.8,4.5-1.8h59c1.7,0,3.2,0.6,4.5,1.8s1.8,2.7,1.8,4.5v52c0,1.7-0.6,3.2-1.7,4.5c-1.2,1.2-2.7,1.8-4.5,1.8h-45.7
					c-0.6,0-0.9,0.3-0.9,0.9v84.5c0,1.7-0.6,3.2-1.7,4.5c-1.2,1.2-2.7,1.8-4.5,1.8L362.4,147.9L362.4,147.9z M374.8,7.2v10.5
					c0,0.6,0.3,0.9,0.9,0.9h32.9c0.6,0,0.9-0.3,0.9-0.9V7.2c0-0.6-0.3-0.9-0.9-0.9h-32.9C375.1,6.3,374.8,6.6,374.8,7.2z
					 M374.8,31.3v10.5c0,0.6,0.3,0.9,0.9,0.9h32.9c0.6,0,0.9-0.3,0.9-0.9V31.3c0-0.5-0.3-0.7-0.9-0.7h-32.9
					C375.1,30.6,374.8,30.9,374.8,31.3z M504.8-8.4c1.7,0,3.2,0.6,4.4,1.8c1.2,1.2,1.7,2.7,1.7,4.5v123.2c0,11.8-1.3,19.1-4,21.9
					s-9.8,4.2-21.3,4.2c-1.9,0-5.7-0.2-11.5-0.5c-1.7-0.1-3.2-0.8-4.5-2.1c-1.2-1.3-2-2.7-2.2-4.4c0-0.5-0.3-0.6-0.9-0.3l-3.5,1.9
					c-3.5,1.9-6.7,1.2-9.6-1.9c-6.5-7.2-12.6-13.4-18.2-18.4c-0.3-0.3-0.8-0.3-1.2,0c-7.7,8.7-19.2,15.8-34.5,21.2
					c-1.7,0.6-3.5,0.6-5.3,0s-3.2-1.6-4.3-3.1l-2.4-3.7c-0.8-1.3-1-2.6-0.5-3.9c0.5-1.3,1.4-2.3,2.8-2.9c15.5-4.8,25.7-10,30.4-15.6
					c0.1-0.1,0.1-0.3,0-0.4c-0.1-0.2-0.2-0.3-0.3-0.3H392c-1.7,0-3.2-0.6-4.5-1.7c-1.2-1.2-1.8-2.7-1.8-4.5v-1.2
					c0-1.7,0.6-3.2,1.8-4.5c1.2-1.2,2.7-1.8,4.5-1.8h31.8c0.6,0,0.9-0.3,0.9-0.9V91c0-0.6-0.3-0.9-0.9-0.9h-29.6
					c-1.7,0-3.2-0.6-4.5-1.8s-1.8-2.8-1.8-4.6v-1c0-1.7,0.6-3.3,1.7-4.5c1.2-1.3,2.7-1.9,4.5-1.9h13.5c0.5,0,0.6-0.2,0.3-0.7
					c-1-1.6-2.7-4-4.9-7.2c-0.9-1.2-1.1-2.5-0.6-4s1.5-2.4,2.9-2.6l4.2-0.9c4.2-0.9,7.6,0.4,10.1,4c2.9,4,5.4,7.5,7.3,10.7
					c0.3,0.5,0.8,0.7,1.4,0.7h10.1c0.5,0,0.9-0.2,1.4-0.7c2.8-3.4,5.4-6.9,7.7-10.4c2.3-3.6,5.5-5,9.6-4.3l3.7,0.5
					c1.5,0.2,2.6,1,3.2,2.4c0.6,1.4,0.6,2.7-0.3,4c-1.9,3-3.7,5.7-5.4,7.9c-0.2,0.3-0.1,0.5,0.3,0.5h14c1.7,0,3.2,0.6,4.5,1.9
					c1.2,1.3,1.8,2.8,1.8,4.5v1c0,1.7-0.6,3.3-1.7,4.5c-1.2,1.3-2.7,1.9-4.5,1.9h-29.6c-0.6,0-0.9,0.3-0.9,0.9v7.2
					c0,0.6,0.3,0.9,0.9,0.9h31.8c1.7,0,3.2,0.6,4.4,1.8c1.2,1.2,1.7,2.7,1.7,4.5v1.2c0,1.7-0.6,3.2-1.7,4.5
					c-1.2,1.2-2.6,1.8-4.4,1.8h-26.6c-0.1,0-0.2,0.1-0.3,0.2c-0.1,0.1,0,0.2,0.1,0.3c6.4,5.2,13,11.4,19.8,18.4c0.3,0.3,0.7,0.3,1,0
					c1.3-0.8,2.5-1.2,3.7-1c4.7,0.3,7.8,0.5,9.4,0.5c4.8,0,7.6-0.5,8.6-1.4c0.9-0.9,1.4-3.7,1.4-8.2V57.1c0-0.6-0.3-0.9-0.9-0.9
					h-47.6c-1.7,0-3.2-0.6-4.4-1.8c-1.2-1.2-1.7-2.7-1.7-4.5v-52c0-1.7,0.6-3.2,1.7-4.5c1.2-1.2,2.6-1.8,4.4-1.8
					C443.5-8.4,504.8-8.4,504.8-8.4z M492.4,17.7V7.2c0-0.6-0.3-0.9-0.9-0.9h-34.6c-0.6,0-0.9,0.3-0.9,0.9v10.5
					c0,0.6,0.3,0.9,0.9,0.9h34.6C492.1,18.6,492.4,18.3,492.4,17.7z M492.4,41.8V31.3c0-0.5-0.3-0.7-0.9-0.7h-34.6
					c-0.6,0-0.9,0.2-0.9,0.7v10.5c0,0.6,0.3,0.9,0.9,0.9h34.6C492.1,42.7,492.4,42.4,492.4,41.8z"/>
				<path class="st2" d="M530.3,11.7c-1.7,0-3.2-0.6-4.5-1.8S524,7.2,524,5.4v-4c0-1.7,0.6-3.2,1.8-4.4s2.7-1.7,4.5-1.7h147
					c1.7,0,3.2,0.6,4.5,1.7c1.2,1.2,1.8,2.6,1.8,4.4v4c0,1.7-0.6,3.2-1.8,4.5c-1.2,1.2-2.7,1.8-4.5,1.8h-49c-0.6,0-0.9,0.3-0.9,0.9
					v19.9c0,0.5,0.3,0.7,0.9,0.7h41.3c1.7,0,3.2,0.6,4.5,1.8s1.8,2.7,1.8,4.5v100c0,1.7-0.6,3.2-1.8,4.5s-2.7,1.8-4.5,1.8h-6.1
					c-1.7,0-3.2-0.6-4.5-1.8s-1.8-2.7-1.8-4.5v-1.7c0-0.6-0.3-0.9-0.9-1h-105c-0.6,0-0.9,0.3-0.9,1v1.7c0,1.7-0.6,3.2-1.8,4.5
					s-2.7,1.8-4.5,1.8H538c-1.7,0-3.2-0.6-4.5-1.8s-1.8-2.7-1.8-4.5V39.6c0-1.7,0.6-3.2,1.8-4.5s2.7-1.8,4.5-1.8h37.6
					c0.6,0,0.9-0.2,0.9-0.7v-20c0-0.6-0.3-0.9-0.9-0.9C575.6,11.7,530.3,11.7,530.3,11.7z M594,50.1c-0.6,14.9-2.8,26.1-6.6,33.6
					s-11,14.6-21.5,21.3c-3.6,2.2-6.8,1.7-9.6-1.4l-5.1-5.8c-0.2-0.1-0.5-0.1-0.7,0.2v22.6c0,0.6,0.3,0.9,0.9,0.9h105
					c0.6,0,0.9-0.3,0.9-0.9V96.8c0-0.6-0.3-0.9-0.9-0.9h-25c-8.3,0-14-1.3-17.1-3.8s-4.6-7.2-4.6-14.1V49.9c0-0.6-0.2-0.9-0.7-0.9
					h-14C594.3,49,594,49.4,594,50.1z M550.5,49.9v42.7c0,0.6,0.2,0.8,0.7,0.5c9.9-5.9,16.4-11.7,19.6-17.2c3.1-5.5,4.9-14.2,5.2-26
					c0-0.6-0.3-0.9-0.9-0.9h-23.8C550.8,49,550.5,49.3,550.5,49.9z M594.6,12.6v19.9c0,0.5,0.2,0.7,0.7,0.7h13.6
					c0.5,0,0.7-0.2,0.7-0.7V12.6c0-0.6-0.2-0.9-0.7-0.9h-13.6C594.8,11.7,594.6,12,594.6,12.6z M627.4,49.9v21.5
					c0,4.7,0.5,7.4,1.4,8.2c0.9,0.8,4,1.2,9.1,1.2h18.4c0.6,0,0.9-0.3,0.9-0.9v-30c0-0.6-0.3-0.9-0.9-0.9h-28
					C627.7,49,627.4,49.3,627.4,49.9z"/>
				<path class="st2" d="M841.7,13.1c-4.1,8.7-9.4,16.1-16.1,22c-0.3,0.3-0.2,0.6,0.3,0.9c6.3,3,14,5.6,23.1,7.7
					c1.6,0.3,2.9,1.3,3.8,2.8c0.9,1.5,1.2,3.1,0.7,4.7l-0.5,1.7c-0.6,1.6-1.6,2.9-3.1,3.9s-3.1,1.3-4.9,0.8
					c-12.9-3.4-23.9-7.6-32.7-12.6c-0.5-0.1-1-0.1-1.6,0c-7.6,4-17,7.3-28.3,10.1c-1.7,0.5-3.4,0.3-5.1-0.6
					c-1.6-0.9-2.8-2.1-3.5-3.8l-2.1-4.7c-0.1-0.3-0.3-0.3-0.5,0.2c-1.3,4.3-3.2,7.1-5.7,8.4s-6.4,1.9-11.6,1.9H746
					c-1.2,0-2.2-0.4-3.1-1.3s-1.4-2-1.5-3.2c0-0.3-0.2-0.5-0.5-0.5h-19.8c-0.3,0-0.5,0.1-0.5,0.3c0,2.1-1,3.2-3.1,3.3H711
					c-1.7,0-3.2-0.6-4.5-1.8c-1.2-1.2-1.8-2.7-1.8-4.5v-4.4c0-0.6-0.3-1-0.9-1.2l-7.7-2.8c-1.4-0.6-2.3-1.6-2.8-3.1
					s-0.3-2.8,0.5-4.1c4-5.7,7.2-11.9,9.6-18.5c1.2-3.5,3.6-5,7.2-4.5c0.5,0,0.7-0.3,0.7-0.9V7.6c0-0.6-0.3-0.9-1-0.9h-10.8
					c-1.6,0-3.1-0.6-4.3-1.7c-1.2-1.2-1.8-2.6-1.8-4.3s0.6-3.1,1.8-4.3s2.7-1.7,4.3-1.7h10.8c0.6,0,0.9-0.3,1-0.9v-1.7
					c0-1.7,0.6-3.2,1.7-4.5c1.2-1.2,2.6-1.8,4.4-1.8h4.5c1.7,0,3.2,0.6,4.5,1.8c1.2,1.2,1.8,2.7,1.8,4.5v1.7c0,0.6,0.3,0.9,0.9,0.9
					H744c0.6,0,0.9-0.3,0.9-0.9v-1.7c0-1.7,0.6-3.2,1.8-4.5c1.2-1.2,2.7-1.8,4.5-1.8h4.4c1.7,0,3.2,0.6,4.4,1.8s1.7,2.7,1.7,4.5v1.7
					c0,0.6,0.3,0.9,0.9,0.9h9.4c1.6,0,3,0.6,4.2,1.7c1.2,1.2,1.7,2.6,1.7,4.3s-0.6,3.1-1.7,4.3c-1.2,1.2-2.6,1.7-4.2,1.7h-9.4
					c-0.6,0-0.9,0.3-0.9,0.9v4.2c0,0.6,0.3,0.9,0.9,0.9h12.2h0.2c5.6-6.8,10.3-14.2,14-22.2c1.9-4,4.8-5.8,8.7-5.4l3.8,0.3
					c1.6,0.2,2.9,1,3.7,2.4c0.8,1.3,0.9,2.8,0.3,4.3c-0.9,2.3-1.7,4.1-2.3,5.4c-0.2,0.6-0.1,0.9,0.5,0.9h44.4c1.7,0,3.2,0.6,4.5,1.7
					c1.2,1.2,1.8,2.7,1.8,4.5v1.2c0,1.7-0.6,3.2-1.8,4.5c-1.2,1.2-2.7,1.8-4.5,1.8H843C842.4,12.3,842,12.6,841.7,13.1z M851,74.1
					c1.3,1.2,1.9,2.7,1.9,4.4c0,1.7-0.6,3.2-1.9,4.5c-1.3,1.3-2.7,1.9-4.4,1.9H701.4c-1.6,0-3.1-0.6-4.4-1.9
					c-1.3-1.3-1.9-2.8-1.9-4.5s0.6-3.1,1.9-4.4c1.3-1.2,2.7-1.8,4.4-1.8h145.2C848.3,72.3,849.7,72.9,851,74.1z M832.3,67.7H715.8
					c-1.3,0-2.3-0.4-3.1-1.3s-1.2-1.9-1.2-3.1s0.4-2.3,1.2-3.1c0.8-0.9,1.9-1.3,3.1-1.3h116.5c1.3,0,2.3,0.4,3.1,1.3
					s1.2,1.9,1.2,3.1s-0.4,2.3-1.2,3.1C834.6,67.3,833.6,67.7,832.3,67.7z M711.4,123.9c0-1.7,0.6-3.3,1.7-4.5
					c1.2-1.3,2.6-1.9,4.4-1.9h113c1.7,0,3.2,0.6,4.4,1.8s1.7,2.8,1.7,4.6v19.9c0,1.7-0.6,3.2-1.7,4.5c-1.2,1.2-2.6,1.8-4.4,1.8h-9.3
					c-1.2,0-2.2-0.4-3-1.2s-1.2-1.8-1.2-3c0-0.3-0.2-0.5-0.5-0.5h-85c-0.3,0-0.5,0.2-0.5,0.5c0,1.2-0.4,2.2-1.2,3s-1.8,1.2-3,1.2
					h-9.3c-1.7,0-3.2-0.6-4.4-1.7c-1.2-1.2-1.7-2.7-1.7-4.5V123.9z M718.6,98.7c-1.2,0-2.2-0.4-3.1-1.3c-0.9-0.9-1.4-2-1.4-3.2
					s0.4-2.2,1.2-3.1s1.9-1.3,3.3-1.3h110.9c1.3,0,2.4,0.4,3.2,1.3c0.9,0.9,1.3,1.9,1.3,3.1c0,1.3-0.4,2.4-1.3,3.2s-2,1.3-3.2,1.3
					H718.6z M718.6,112.5c-1.2,0-2.2-0.4-3.1-1.3c-0.9-0.9-1.4-1.9-1.4-3.1s0.4-2.3,1.3-3.1s2-1.3,3.2-1.3h110.9
					c1.2,0,2.2,0.4,3.1,1.3c0.9,0.9,1.4,1.9,1.4,3.1s-0.4,2.3-1.3,3.1s-2,1.3-3.2,1.3H718.6z M752.2,43.6c1.4-0.1,2.4-1.2,3-3.1
					c0.6-2,1.3-7.4,2.3-16.3c0-0.5-0.3-0.7-0.9-0.7h-38.7c-0.7,0-1.1,0.2-1.2,0.7c-0.1,0.2-0.3,0.7-0.5,1.3s-0.4,1.1-0.5,1.3
					c-0.2,0.5-0.1,0.7,0.5,0.7h28.7c1.7,0,3.2,0.6,4.5,1.7c1.2,1.2,1.8,2.7,1.8,4.5v8.9C751.1,43.3,751.5,43.6,752.2,43.6z
					 M736.4,41.5v-5.1c0-0.6-0.3-0.9-0.9-0.9h-14c-0.6,0-0.9,0.3-0.9,0.9v5.1c0,0.5,0.3,0.7,0.9,0.7h14
					C736.1,42.2,736.4,42,736.4,41.5z M728.4,7.7v4.2c0,0.6,0.3,0.9,0.9,0.9h14.9c0.6,0,0.9-0.3,0.9-0.9V7.7c0-0.6-0.3-0.9-0.9-0.9
					h-14.9C728.7,6.8,728.4,7.1,728.4,7.7z M731,128.1v5.1c0,0.6,0.3,0.9,0.9,0.9h84.3c0.6,0,0.9-0.3,0.9-0.9v-5.1
					c0-0.5-0.3-0.7-0.9-0.7h-84.3C731.3,127.4,731,127.6,731,128.1z M798.4,35.7c0.5-0.2,0.5-0.5,0-0.7c-3.4-3.3-6.8-7.5-10.1-12.8
					c-0.2-0.5-0.6-0.5-1,0c-1.2,1.4-2.1,2.4-2.8,3.1c-2.8,3-5.9,3.4-9.4,1c-0.6-0.2-0.9-0.1-0.9,0.5c-0.6,7.1-1.2,12.4-1.9,15.9
					c-0.1,0.1-0.1,0.3,0.2,0.4c0.2,0.2,0.5,0.3,0.7,0.3C782.7,41.7,791.1,39.1,798.4,35.7z M824.2,13.1c0.2-0.6,0.1-0.9-0.3-0.9
					h-28.2c-0.5,0-0.9,0.2-1.2,0.7c-0.5,0.6-1.1,1.4-2,2.4s-1.5,1.9-1.8,2.6c0,0.1,0.1,0.3,0.2,0.5l4-1.7c3.6-1.5,6.8-0.6,9.4,2.8
					c2.2,2.9,4.6,5.4,7.2,7.5c0.3,0.5,0.8,0.4,1.4-0.2C817.5,23.1,821.3,18.5,824.2,13.1z"/>
				<path class="st2" d="M860.6,83.1l-2.8-10.3c-1-4.1-0.4-7.9,1.9-11.5c11.9-18.3,20.8-40.8,26.8-67.4c0.3-1.6,1.3-2.9,2.7-3.9
					c1.5-1,3.1-1.4,4.8-1.1l5.8,0.9c1.6,0.2,3,1,4,2.4s1.4,3,1,4.7c-3.3,16-7.8,30.4-13.5,43.4c-0.2,0.7-0.3,1.3-0.3,1.9v101
					c0,1.7-0.6,3.2-1.9,4.5c-1.3,1.2-2.8,1.8-4.5,1.8h-5.8c-1.7,0-3.2-0.6-4.5-1.7c-1.2-1.2-1.8-2.7-1.8-4.5V74.9
					c0-0.3-0.1-0.4-0.3-0.2c-1.5,2.7-3.5,5.8-5.9,9.4c-0.7,1-1.7,1.5-3.1,1.2C861.8,85.2,861,84.4,860.6,83.1z M1027,37.3v2.1
					c0,1.7-0.6,3.3-1.7,4.5c-1.2,1.3-2.7,1.9-4.5,1.9H921c-0.6,0-0.9,0.2-0.9,0.7v21.7c0,27.9-4.8,52.1-14.3,72.6
					c-0.6,1.3-1.6,2-3.1,2.3c-1.5,0.2-2.7-0.2-3.7-1.4l-4.7-5.6c-2.7-3.3-3.3-6.8-1.9-10.7c3.5-9.9,5.9-20,7.3-30.2
					c1.3-10.2,2-23.4,2-39.5V37.3c0-1.7,0.6-3.2,1.9-4.5c1.3-1.2,2.8-1.8,4.5-1.8h112.7c1.7,0,3.2,0.6,4.5,1.8
					C1026.4,34.1,1027,35.5,1027,37.3z M906.6,6.5c0-1.7,0.6-3.2,1.7-4.5c1.2-1.2,2.7-1.8,4.5-1.8h17.8c0.6,0,0.9-0.3,0.9-0.9v-6.8
					c0-1.7,0.6-3.2,1.8-4.5c1.2-1.2,2.7-1.8,4.5-1.8h5.8c1.7,0,3.2,0.6,4.5,1.8c1.2,1.2,1.8,2.7,1.8,4.5v6.8c0,0.6,0.3,0.9,0.9,0.9
					h31.5c0.6,0,0.9-0.3,0.9-0.9v-6.8c0-1.7,0.6-3.2,1.8-4.5c1.2-1.2,2.7-1.8,4.5-1.8h6.1c1.7,0,3.2,0.6,4.5,1.8
					c1.2,1.2,1.8,2.7,1.8,4.5v6.8c0,0.6,0.3,0.9,0.9,0.9h16.2c1.7,0,3.2,0.6,4.5,1.8c1.2,1.2,1.8,2.7,1.8,4.5v2.4
					c0,1.7-0.6,3.2-1.8,4.5c-1.2,1.2-2.7,1.8-4.5,1.8h-16.1c-0.6,0-0.9,0.3-0.9,0.9v5.1c0,1.7-0.6,3.2-1.8,4.5
					c-1.2,1.2-2.7,1.8-4.5,1.8h-6.1c-1.7,0-3.2-0.6-4.5-1.8c-1.2-1.2-1.8-2.7-1.8-4.5v-5.1c0-0.6-0.3-0.9-0.9-0.9h-31.5
					c-0.6,0-0.9,0.3-0.9,0.9v5.1c0,1.7-0.6,3.2-1.8,4.5c-1.2,1.2-2.7,1.8-4.5,1.8h-5.8c-1.7,0-3.2-0.6-4.5-1.8
					c-1.2-1.2-1.8-2.7-1.8-4.5v-5.1c0-0.6-0.3-0.9-0.9-0.9h-17.8c-1.7,0-3.2-0.6-4.5-1.7c-1.2-1.2-1.8-2.7-1.8-4.5L906.6,6.5
					L906.6,6.5z M1001.6,132.3c1,0,1.7-0.2,1.8-0.7c0.2-0.5,0.3-2.1,0.3-4.9v-7.5c0-0.5-0.2-0.7-0.7-0.7h-21.2
					c-0.6,0-0.9,0.2-0.9,0.7v21.5c0,1.7-0.6,3.3-1.8,4.5c-1.2,1.3-2.7,1.9-4.5,1.9h-4.9c-1.7,0-3.2-0.6-4.4-1.9
					c-1.2-1.3-1.7-2.8-1.7-4.5v-21.5c0-0.5-0.3-0.7-1-0.7h-20.1c-0.6,0-0.9,0.2-0.9,0.7v22.9c0,1.7-0.6,3.2-1.8,4.5
					c-1.2,1.2-2.7,1.8-4.5,1.8h-5.4c-1.7,0-3.2-0.6-4.5-1.7c-1.2-1.2-1.8-2.7-1.8-4.5v-82c0-1.7,0.6-3.2,1.8-4.5
					c1.2-1.2,2.7-1.8,4.5-1.8h86.1c1.7,0,3.2,0.6,4.4,1.8s1.7,2.7,1.7,4.5v67.5c0,9.3-0.8,15-2.5,17.1c-1.7,2-6.5,3.1-14.4,3.1
					c-3.7,0-6.9-0.1-9.4-0.2c-1.7-0.1-3.3-0.8-4.5-2.1c-1.3-1.3-2-2.8-2.1-4.5l-0.2-3c-0.1-1.6,0.4-3.1,1.7-4.3
					c1.2-1.2,2.7-1.8,4.5-1.7C997.4,132.2,999.6,132.3,1001.6,132.3z M963.7,79.5V69c0-0.5-0.3-0.7-1-0.7h-20.1
					c-0.6,0-0.9,0.2-0.9,0.7v10.5c0,0.6,0.3,0.9,0.9,0.9h20.1C963.3,80.3,963.7,80,963.7,79.5z M963.7,104.5V94.2
					c0-0.5-0.3-0.7-1-0.7h-20.1c-0.6,0-0.9,0.2-0.9,0.7v10.3c0,0.6,0.3,0.9,0.9,0.9h20.1C963.3,105.4,963.7,105.1,963.7,104.5z
					 M981,69v10.5c0,0.6,0.3,0.9,0.9,0.9h21.1c0.5,0,0.7-0.3,0.7-0.9V69c0-0.5-0.2-0.7-0.7-0.7h-21.2C981.3,68.3,981,68.5,981,69z
					 M1003,105.4c0.5,0,0.7-0.3,0.7-0.9V94.2c0-0.5-0.2-0.7-0.7-0.7h-21.2c-0.6,0-0.9,0.2-0.9,0.7v10.3c0,0.6,0.3,0.9,0.9,0.9H1003z
					"/>
			</g>
		</g>
		<g>
			<polygon class="st3" points="331.2,-17.5 263.5,-17.5 196.8,68 264.5,156.5 332.2,156.5 264.5,68 			"/>
			<g>
				<polygon class="st2" points="185.7,75.9 179.2,67.4 185.8,58.9 214.7,21.8 214.7,-18.1 150,-18.1 150,156.1 214.7,156.1 
					214.7,113.9 				"/>
			</g>
		</g>
	</g>
</g>
<g>
	<g>
		<polygon class="st4" points="7.8,38 31.9,38 44,58.9 19.8,58.9 		"/>
		<polygon class="st4" points="19.8,0.5 3,29.7 3,29.7 36.7,29.7 53.5,0.5 		"/>
		<polygon class="st5" points="36.7,29.7 53.5,0.5 70.4,29.7 53.5,58.9 53.5,58.9 		"/>
	</g>
	<g>
		<polygon points="82.8,10.8 82.8,20.9 97,20.9 97,48.6 110.4,48.6 110.4,20.9 124.6,20.9 124.6,10.8 		"/>
		<path d="M151.4,9.7c-7.2,0-25,0.5-25,20s18.8,20.1,25,20.1c7.2,0,25-0.6,25-20.1C176.3,10.2,157.4,9.7,151.4,9.7z M151.4,39.4
			c-2.4,0-10.6-0.1-10.6-9.6s7.6-9.5,10.6-9.5c2.9,0,10.6,0.1,10.6,9.5S153.8,39.4,151.4,39.4z"/>
		<path d="M219.5,23.5c0-12.5-12.5-12.7-16.1-12.7c-1.3,0-22.5,0-22.5,0v37.8h13.4V35.5h1.1l11.2,13.2h16.6l-11.4-13.5
			C214.9,34.4,219.5,31.8,219.5,23.5z M200.3,19.6c1.9,0,6,0.4,6,4.5s-3.3,4.5-5.9,4.5c-2.6,0-5.7,0-5.9,0v-9
			C194.7,19.6,198.5,19.6,200.3,19.6z"/>
		<path d="M273.2,29.8c0-19.5-18.9-20-25-20c-7.2,0-25,0.5-25,20s18.8,20.1,25,20.1c2.2,0,5.4-0.1,8.8-0.7l1.8,2h14.3l-6-6.5
			C270.7,41.7,273.2,37,273.2,29.8z M237.6,29.8c0-9.5,7.6-9.5,10.6-9.5c2.9,0,10.6,0.1,10.6,9.5c0,2-0.4,3.6-1,4.9l-2.5-2.8h-14.1
			l6.9,7.4C245.5,39.3,237.6,39,237.6,29.8z"/>
	</g>
</g>
</svg>
